<mxfile>
    <diagram id="Ndw7woc8x4RitHYrZnJn" name="Page-1">
        <mxGraphModel dx="1897" dy="1507" grid="1" gridSize="10" guides="1" tooltips="1" connect="1" arrows="1" fold="1" page="1" pageScale="1" pageWidth="1169" pageHeight="827" background="#F4F1DE" math="0" shadow="0">
            <root>
                <mxCell id="0"/>
                <mxCell id="1" parent="0"/>
                <mxCell id="7" value="Index (Topics)" style="swimlane;fontStyle=0;childLayout=stackLayout;horizontal=1;startSize=26;horizontalStack=0;resizeParent=1;resizeParentMax=0;resizeLast=0;collapsible=1;marginBottom=0;align=center;fontSize=14;rounded=0;sketch=0;strokeColor=#E07A5F;fillColor=#F2CC8F;fontColor=#CC0000;" parent="1" vertex="1">
                    <mxGeometry x="130" y="-40" width="240" height="170" as="geometry"/>
                </mxCell>
                <mxCell id="8" value="Show All Topics by sort filter" style="text;strokeColor=none;fillColor=none;spacingLeft=4;spacingRight=4;overflow=hidden;rotatable=0;points=[[0,0.5],[1,0.5]];portConstraint=eastwest;fontSize=12;fontColor=#000000;" parent="7" vertex="1">
                    <mxGeometry y="26" width="240" height="24" as="geometry"/>
                </mxCell>
                <mxCell id="17" value="--------------------------------------------------------" style="text;strokeColor=none;fillColor=none;spacingLeft=4;spacingRight=4;overflow=hidden;rotatable=0;points=[[0,0.5],[1,0.5]];portConstraint=eastwest;fontSize=12;fontColor=#000000;" parent="7" vertex="1">
                    <mxGeometry y="50" width="240" height="20" as="geometry"/>
                </mxCell>
                <mxCell id="9" value="Filters:&#10;・Latest (default)&#10;・Topics table column (latest, oldest)&#10;・Number of points &#10;・Most viewed &#10;・&quot;For You&quot; mode" style="text;strokeColor=none;fillColor=none;spacingLeft=4;spacingRight=4;overflow=hidden;rotatable=0;points=[[0,0.5],[1,0.5]];portConstraint=eastwest;fontSize=12;fontColor=#000000;" parent="7" vertex="1">
                    <mxGeometry y="70" width="240" height="100" as="geometry"/>
                </mxCell>
                <mxCell id="11" value="Search Results (Topics)" style="swimlane;fontStyle=0;childLayout=stackLayout;horizontal=1;startSize=26;horizontalStack=0;resizeParent=1;resizeParentMax=0;resizeLast=0;collapsible=1;marginBottom=0;align=center;fontSize=14;rounded=0;sketch=0;strokeColor=#E07A5F;fillColor=#F2CC8F;fontColor=#CC0000;direction=east;" parent="1" vertex="1">
                    <mxGeometry x="125" y="190" width="250" height="130" as="geometry"/>
                </mxCell>
                <mxCell id="12" value="Show Search Result (same format as index),&#10;Different color scheme" style="text;strokeColor=none;fillColor=none;spacingLeft=4;spacingRight=4;overflow=hidden;rotatable=0;points=[[0,0.5],[1,0.5]];portConstraint=eastwest;fontSize=12;fontColor=#000000;" parent="11" vertex="1">
                    <mxGeometry y="26" width="250" height="30" as="geometry"/>
                </mxCell>
                <mxCell id="16" value="------------------------------------------------------------" style="text;strokeColor=none;fillColor=none;spacingLeft=4;spacingRight=4;overflow=hidden;rotatable=0;points=[[0,0.5],[1,0.5]];portConstraint=eastwest;fontSize=12;fontColor=#000000;" parent="11" vertex="1">
                    <mxGeometry y="56" width="250" height="30" as="geometry"/>
                </mxCell>
                <mxCell id="13" value="Displays the tags if searched with them. &#10;Can remove them with a click and re-search." style="text;strokeColor=none;fillColor=none;spacingLeft=4;spacingRight=4;overflow=hidden;rotatable=0;points=[[0,0.5],[1,0.5]];portConstraint=eastwest;fontSize=12;fontColor=#000000;" parent="11" vertex="1">
                    <mxGeometry y="86" width="250" height="44" as="geometry"/>
                </mxCell>
                <mxCell id="18" value="Sign Up" style="swimlane;fontStyle=0;childLayout=stackLayout;horizontal=1;startSize=26;horizontalStack=0;resizeParent=1;resizeParentMax=0;resizeLast=0;collapsible=1;marginBottom=0;align=center;fontSize=14;rounded=0;sketch=0;strokeColor=#E07A5F;fillColor=#F2CC8F;fontColor=#CC0000;" parent="1" vertex="1">
                    <mxGeometry x="760" y="-160" width="240" height="240" as="geometry"/>
                </mxCell>
                <mxCell id="19" value="Options:" style="text;strokeColor=none;fillColor=none;spacingLeft=4;spacingRight=4;overflow=hidden;rotatable=0;points=[[0,0.5],[1,0.5]];portConstraint=eastwest;fontSize=12;fontColor=#000000;" parent="18" vertex="1">
                    <mxGeometry y="26" width="240" height="24" as="geometry"/>
                </mxCell>
                <mxCell id="20" value="--------------------------------------------------------" style="text;strokeColor=none;fillColor=none;spacingLeft=4;spacingRight=4;overflow=hidden;rotatable=0;points=[[0,0.5],[1,0.5]];portConstraint=eastwest;fontSize=12;fontColor=#000000;" parent="18" vertex="1">
                    <mxGeometry y="50" width="240" height="20" as="geometry"/>
                </mxCell>
                <mxCell id="21" value="・Sign up here or...&#10;・Sign up with social media&#10;&#10;Fields:&#10;Nickname&#10;Full Name (Alphabets, Hira, Kata, Kanji)&#10;Furigana (if Kanji is detected)&#10;Date Of Birth&#10;Email&#10;Encrypted Password&#10;Preference tags (list of tags)&#10;" style="text;strokeColor=none;fillColor=none;spacingLeft=4;spacingRight=4;overflow=hidden;rotatable=0;points=[[0,0.5],[1,0.5]];portConstraint=eastwest;fontSize=12;fontColor=#000000;" parent="18" vertex="1">
                    <mxGeometry y="70" width="240" height="170" as="geometry"/>
                </mxCell>
                <mxCell id="22" value="Header Layout" style="swimlane;fontStyle=0;childLayout=stackLayout;horizontal=1;startSize=26;horizontalStack=0;resizeParent=1;resizeParentMax=0;resizeLast=0;collapsible=1;marginBottom=0;align=center;fontSize=14;rounded=0;sketch=0;fillColor=#CCFFFF;strokeColor=#000066;strokeWidth=3;fontColor=#000000;" parent="1" vertex="1">
                    <mxGeometry x="-230" y="-80" width="240" height="320" as="geometry"/>
                </mxCell>
                <mxCell id="23" value="Features:" style="text;strokeColor=none;fillColor=none;spacingLeft=4;spacingRight=4;overflow=hidden;rotatable=0;points=[[0,0.5],[1,0.5]];portConstraint=eastwest;fontSize=12;fontColor=#000000;" parent="22" vertex="1">
                    <mxGeometry y="26" width="240" height="24" as="geometry"/>
                </mxCell>
                <mxCell id="24" value="--------------------------------------------------------" style="text;strokeColor=none;fillColor=none;spacingLeft=4;spacingRight=4;overflow=hidden;rotatable=0;points=[[0,0.5],[1,0.5]];portConstraint=eastwest;fontSize=12;fontColor=#000000;" parent="22" vertex="1">
                    <mxGeometry y="50" width="240" height="20" as="geometry"/>
                </mxCell>
                <mxCell id="25" value="Logo Linked to root.&#10;&#10;Search Bar with 2 options: &#10;Tag search, Free search.&#10;&#10;&quot;Sign in&quot;&#10;&#10;or&#10;&#10;User logo → pulldown menu&#10;・User Profile Page&#10;・Log out&#10;・Notifications of replies &amp; ratings&#10;・Shifting number indicators for the above&#10;&#10;Create New Topic" style="text;strokeColor=none;fillColor=none;spacingLeft=4;spacingRight=4;overflow=hidden;rotatable=0;points=[[0,0.5],[1,0.5]];portConstraint=eastwest;fontSize=12;fontColor=#000000;" parent="22" vertex="1">
                    <mxGeometry y="70" width="240" height="250" as="geometry"/>
                </mxCell>
                <mxCell id="26" value="Loading Screen" style="swimlane;fontStyle=0;childLayout=stackLayout;horizontal=1;startSize=26;horizontalStack=0;resizeParent=1;resizeParentMax=0;resizeLast=0;collapsible=1;marginBottom=0;align=center;fontSize=14;rounded=0;sketch=0;strokeColor=#E07A5F;fillColor=#F2CC8F;fontColor=#CC0000;" parent="1" vertex="1">
                    <mxGeometry x="120" y="-280" width="260" height="170" as="geometry"/>
                </mxCell>
                <mxCell id="27" value="Features:" style="text;strokeColor=none;fillColor=none;spacingLeft=4;spacingRight=4;overflow=hidden;rotatable=0;points=[[0,0.5],[1,0.5]];portConstraint=eastwest;fontSize=12;fontColor=#000000;" parent="26" vertex="1">
                    <mxGeometry y="26" width="260" height="24" as="geometry"/>
                </mxCell>
                <mxCell id="28" value="--------------------------------------------------------------" style="text;strokeColor=none;fillColor=none;spacingLeft=4;spacingRight=4;overflow=hidden;rotatable=0;points=[[0,0.5],[1,0.5]];portConstraint=eastwest;fontSize=12;fontColor=#000000;" parent="26" vertex="1">
                    <mxGeometry y="50" width="260" height="20" as="geometry"/>
                </mxCell>
                <mxCell id="29" value="Logo filling up, percentage showing,&#10;Levitation animation.&#10;Animation or duplication + magnify &amp; fade&#10;animation of a different &quot;woken&quot; logo.&#10;&#10;Background: CG vaporwave grid and mountains" style="text;strokeColor=none;fillColor=none;spacingLeft=4;spacingRight=4;overflow=hidden;rotatable=0;points=[[0,0.5],[1,0.5]];portConstraint=eastwest;fontSize=12;fontColor=#000000;" parent="26" vertex="1">
                    <mxGeometry y="70" width="260" height="100" as="geometry"/>
                </mxCell>
                <mxCell id="31" value="Show (Topics)" style="swimlane;fontStyle=0;childLayout=stackLayout;horizontal=1;startSize=26;horizontalStack=0;resizeParent=1;resizeParentMax=0;resizeLast=0;collapsible=1;marginBottom=0;align=center;fontSize=14;rounded=0;sketch=0;strokeColor=#E07A5F;fillColor=#F2CC8F;fontColor=#CC0000;" parent="1" vertex="1">
                    <mxGeometry x="440" y="60" width="240" height="180" as="geometry"/>
                </mxCell>
                <mxCell id="32" value="Show Individual Topic" style="text;strokeColor=none;fillColor=none;spacingLeft=4;spacingRight=4;overflow=hidden;rotatable=0;points=[[0,0.5],[1,0.5]];portConstraint=eastwest;fontSize=12;fontColor=#000000;" parent="31" vertex="1">
                    <mxGeometry y="26" width="240" height="24" as="geometry"/>
                </mxCell>
                <mxCell id="33" value="--------------------------------------------------------" style="text;strokeColor=none;fillColor=none;spacingLeft=4;spacingRight=4;overflow=hidden;rotatable=0;points=[[0,0.5],[1,0.5]];portConstraint=eastwest;fontSize=12;fontColor=#000000;" parent="31" vertex="1">
                    <mxGeometry y="50" width="240" height="20" as="geometry"/>
                </mxCell>
                <mxCell id="34" value="・Pro/Agree/Yes Side&#10;・Con/Disagree/No Side&#10;※ Names for positions are manually written&#10; &#10;・Points &#10;・5 stage rating&#10;・Reply comments on points" style="text;strokeColor=none;fillColor=none;spacingLeft=4;spacingRight=4;overflow=hidden;rotatable=0;points=[[0,0.5],[1,0.5]];portConstraint=eastwest;fontSize=12;fontColor=#000000;" parent="31" vertex="1">
                    <mxGeometry y="70" width="240" height="110" as="geometry"/>
                </mxCell>
                <mxCell id="35" value="Sign in" style="swimlane;fontStyle=0;childLayout=stackLayout;horizontal=1;startSize=26;horizontalStack=0;resizeParent=1;resizeParentMax=0;resizeLast=0;collapsible=1;marginBottom=0;align=center;fontSize=14;rounded=0;sketch=0;strokeColor=#E07A5F;fillColor=#F2CC8F;fontColor=#CC0000;" parent="1" vertex="1">
                    <mxGeometry x="920" y="160" width="240" height="130" as="geometry"/>
                </mxCell>
                <mxCell id="36" value="Fields:" style="text;strokeColor=none;fillColor=none;spacingLeft=4;spacingRight=4;overflow=hidden;rotatable=0;points=[[0,0.5],[1,0.5]];portConstraint=eastwest;fontSize=12;fontColor=#000000;" parent="35" vertex="1">
                    <mxGeometry y="26" width="240" height="24" as="geometry"/>
                </mxCell>
                <mxCell id="37" value="--------------------------------------------------------" style="text;strokeColor=none;fillColor=none;spacingLeft=4;spacingRight=4;overflow=hidden;rotatable=0;points=[[0,0.5],[1,0.5]];portConstraint=eastwest;fontSize=12;fontColor=#000000;" parent="35" vertex="1">
                    <mxGeometry y="50" width="240" height="20" as="geometry"/>
                </mxCell>
                <mxCell id="38" value="・Email&#10;・Password&#10;・Login with Social Media" style="text;strokeColor=none;fillColor=none;spacingLeft=4;spacingRight=4;overflow=hidden;rotatable=0;points=[[0,0.5],[1,0.5]];portConstraint=eastwest;fontSize=12;fontColor=#000000;" parent="35" vertex="1">
                    <mxGeometry y="70" width="240" height="60" as="geometry"/>
                </mxCell>
                <mxCell id="40" value="" style="endArrow=none;html=1;fillColor=#F2CC8F;fontColor=#CC0000;exitX=1;exitY=0.046;exitDx=0;exitDy=0;exitPerimeter=0;strokeColor=#000066;strokeWidth=3;" parent="1" source="22" edge="1">
                    <mxGeometry width="50" height="50" relative="1" as="geometry">
                        <mxPoint x="160" y="30" as="sourcePoint"/>
                        <mxPoint x="732" y="-67" as="targetPoint"/>
                    </mxGeometry>
                </mxCell>
                <mxCell id="41" value="" style="endArrow=none;html=1;fillColor=#F2CC8F;fontColor=#CC0000;exitX=0.997;exitY=0;exitDx=0;exitDy=0;exitPerimeter=0;entryX=0.999;entryY=1.12;entryDx=0;entryDy=0;entryPerimeter=0;strokeColor=#000066;strokeWidth=3;" parent="1" source="42" target="40" edge="1">
                    <mxGeometry width="50" height="50" relative="1" as="geometry">
                        <mxPoint x="80" y="350" as="sourcePoint"/>
                        <mxPoint x="740" y="200" as="targetPoint"/>
                    </mxGeometry>
                </mxCell>
                <mxCell id="42" value="" style="endArrow=none;html=1;fillColor=#F2CC8F;fontColor=#CC0000;strokeColor=#000066;strokeWidth=3;" parent="1" edge="1">
                    <mxGeometry width="50" height="50" relative="1" as="geometry">
                        <mxPoint x="80" y="360" as="sourcePoint"/>
                        <mxPoint x="734" y="360" as="targetPoint"/>
                    </mxGeometry>
                </mxCell>
                <mxCell id="43" value="" style="endArrow=none;html=1;fillColor=#F2CC8F;fontColor=#CC0000;edgeStyle=orthogonalEdgeStyle;exitX=1.008;exitY=0.914;exitDx=0;exitDy=0;exitPerimeter=0;entryX=0.006;entryY=0;entryDx=0;entryDy=0;entryPerimeter=0;strokeColor=#000066;strokeWidth=3;" parent="1" source="25" target="42" edge="1">
                    <mxGeometry width="50" height="50" relative="1" as="geometry">
                        <mxPoint x="50" y="190" as="sourcePoint"/>
                        <mxPoint x="100" y="140" as="targetPoint"/>
                    </mxGeometry>
                </mxCell>
                <mxCell id="44" value="" style="endArrow=classic;html=1;strokeWidth=1;fillColor=#F2CC8F;fontColor=#CC0000;strokeColor=#000000;entryX=0.5;entryY=0;entryDx=0;entryDy=0;" parent="1" edge="1">
                    <mxGeometry width="50" height="50" relative="1" as="geometry">
                        <mxPoint x="248" y="131" as="sourcePoint"/>
                        <mxPoint x="248" y="190" as="targetPoint"/>
                    </mxGeometry>
                </mxCell>
                <mxCell id="45" value="" style="endArrow=classic;html=1;strokeColor=#000000;strokeWidth=1;fillColor=#F2CC8F;fontColor=#CC0000;edgeStyle=orthogonalEdgeStyle;entryX=0.5;entryY=0;entryDx=0;entryDy=0;" parent="1" target="31" edge="1">
                    <mxGeometry width="50" height="50" relative="1" as="geometry">
                        <mxPoint x="370" as="sourcePoint"/>
                        <mxPoint x="560" as="targetPoint"/>
                    </mxGeometry>
                </mxCell>
                <mxCell id="46" value="" style="endArrow=classic;html=1;strokeColor=#000000;strokeWidth=1;fillColor=#F2CC8F;fontColor=#CC0000;edgeStyle=orthogonalEdgeStyle;entryX=0.5;entryY=0.991;entryDx=0;entryDy=0;entryPerimeter=0;" parent="1" target="34" edge="1">
                    <mxGeometry width="50" height="50" relative="1" as="geometry">
                        <mxPoint x="375" y="290" as="sourcePoint"/>
                        <mxPoint x="560" y="260" as="targetPoint"/>
                        <Array as="points">
                            <mxPoint x="560" y="290"/>
                        </Array>
                    </mxGeometry>
                </mxCell>
                <mxCell id="47" value="New (Topic)" style="swimlane;fontStyle=0;childLayout=stackLayout;horizontal=1;startSize=26;horizontalStack=0;resizeParent=1;resizeParentMax=0;resizeLast=0;collapsible=1;marginBottom=0;align=center;fontSize=14;rounded=0;sketch=0;strokeColor=#E07A5F;fillColor=#F2CC8F;fontColor=#CC0000;" parent="1" vertex="1">
                    <mxGeometry x="440" y="414" width="240" height="140" as="geometry"/>
                </mxCell>
                <mxCell id="48" value="Fields" style="text;strokeColor=none;fillColor=none;spacingLeft=4;spacingRight=4;overflow=hidden;rotatable=0;points=[[0,0.5],[1,0.5]];portConstraint=eastwest;fontSize=12;fontColor=#000000;" parent="47" vertex="1">
                    <mxGeometry y="26" width="240" height="24" as="geometry"/>
                </mxCell>
                <mxCell id="49" value="--------------------------------------------------------" style="text;strokeColor=none;fillColor=none;spacingLeft=4;spacingRight=4;overflow=hidden;rotatable=0;points=[[0,0.5],[1,0.5]];portConstraint=eastwest;fontSize=12;fontColor=#000000;" parent="47" vertex="1">
                    <mxGeometry y="50" width="240" height="20" as="geometry"/>
                </mxCell>
                <mxCell id="50" value="・Topic Title&#10;・Name of the 2 sides&#10;・Image to go with it.&#10;・Tags" style="text;strokeColor=none;fillColor=none;spacingLeft=4;spacingRight=4;overflow=hidden;rotatable=0;points=[[0,0.5],[1,0.5]];portConstraint=eastwest;fontSize=12;fontColor=#000000;" parent="47" vertex="1">
                    <mxGeometry y="70" width="240" height="70" as="geometry"/>
                </mxCell>
                <mxCell id="51" value="" style="endArrow=classic;html=1;strokeColor=#000000;strokeWidth=1;fillColor=#F2CC8F;fontColor=#CC0000;edgeStyle=orthogonalEdgeStyle;" parent="1" target="47" edge="1">
                    <mxGeometry width="50" height="50" relative="1" as="geometry">
                        <mxPoint x="-120" y="240" as="sourcePoint"/>
                        <mxPoint x="260" y="430" as="targetPoint"/>
                        <Array as="points">
                            <mxPoint x="-120" y="430"/>
                        </Array>
                    </mxGeometry>
                </mxCell>
                <mxCell id="52" value="" style="endArrow=classic;html=1;strokeColor=#000000;strokeWidth=1;fillColor=#F2CC8F;fontColor=#CC0000;edgeStyle=orthogonalEdgeStyle;exitX=0.857;exitY=1;exitDx=0;exitDy=0;exitPerimeter=0;" parent="1" source="51" target="21" edge="1">
                    <mxGeometry width="50" height="50" relative="1" as="geometry">
                        <mxPoint x="360" y="380" as="sourcePoint"/>
                        <mxPoint x="841" y="230" as="targetPoint"/>
                        <Array as="points">
                            <mxPoint x="360" y="390"/>
                            <mxPoint x="840" y="390"/>
                        </Array>
                    </mxGeometry>
                </mxCell>
                <mxCell id="53" value="" style="endArrow=classic;html=1;strokeColor=#000000;strokeWidth=1;fillColor=#F2CC8F;fontColor=#CC0000;edgeStyle=orthogonalEdgeStyle;entryX=1.008;entryY=0.088;entryDx=0;entryDy=0;exitX=0;exitY=0.054;exitDx=0;exitDy=0;exitPerimeter=0;entryPerimeter=0;" parent="1" source="18" target="7" edge="1">
                    <mxGeometry width="50" height="50" relative="1" as="geometry">
                        <mxPoint x="420" y="-160" as="sourcePoint"/>
                        <mxPoint x="610" y="-100" as="targetPoint"/>
                    </mxGeometry>
                </mxCell>
                <mxCell id="54" value="" style="endArrow=classic;html=1;strokeColor=#000000;strokeWidth=1;fillColor=#F2CC8F;fontColor=#CC0000;entryX=-0.012;entryY=0.167;entryDx=0;entryDy=0;entryPerimeter=0;" parent="1" edge="1">
                    <mxGeometry width="50" height="50" relative="1" as="geometry">
                        <mxPoint x="841" y="240" as="sourcePoint"/>
                        <mxPoint x="915.1199999999999" y="240.01999999999998" as="targetPoint"/>
                    </mxGeometry>
                </mxCell>
                <mxCell id="55" value="" style="endArrow=classic;html=1;strokeWidth=3;fillColor=#F2CC8F;fontColor=#CC0000;exitX=0.5;exitY=1.033;exitDx=0;exitDy=0;exitPerimeter=0;edgeStyle=orthogonalEdgeStyle;entryX=0.996;entryY=0.079;entryDx=0;entryDy=0;entryPerimeter=0;strokeColor=#FF0000;" parent="1" source="38" target="47" edge="1">
                    <mxGeometry width="50" height="50" relative="1" as="geometry">
                        <mxPoint x="1080" y="439" as="sourcePoint"/>
                        <mxPoint x="1040" y="480" as="targetPoint"/>
                        <Array as="points">
                            <mxPoint x="1040" y="425"/>
                        </Array>
                    </mxGeometry>
                </mxCell>
                <mxCell id="56" value="" style="endArrow=none;html=1;strokeColor=#FF0000;strokeWidth=3;fillColor=#F2CC8F;fontColor=#CC0000;entryX=0.163;entryY=1.006;entryDx=0;entryDy=0;entryPerimeter=0;exitX=0.336;exitY=1.002;exitDx=0;exitDy=0;exitPerimeter=0;" parent="1" source="55" edge="1">
                    <mxGeometry width="50" height="50" relative="1" as="geometry">
                        <mxPoint x="799" y="420" as="sourcePoint"/>
                        <mxPoint x="799.1199999999999" y="80.01999999999998" as="targetPoint"/>
                    </mxGeometry>
                </mxCell>
                <mxCell id="57" value="" style="endArrow=none;html=1;strokeColor=#000000;strokeWidth=1;fillColor=#F2CC8F;fontColor=#CC0000;edgeStyle=orthogonalEdgeStyle;exitX=0.5;exitY=0;exitDx=0;exitDy=0;endFill=0;entryX=0.365;entryY=1;entryDx=0;entryDy=0;entryPerimeter=0;" parent="1" source="35" target="53" edge="1">
                    <mxGeometry width="50" height="50" relative="1" as="geometry">
                        <mxPoint x="1148.1" y="-231.99999999999994" as="sourcePoint"/>
                        <mxPoint x="513" y="-30" as="targetPoint"/>
                        <Array as="points">
                            <mxPoint x="1040" y="-232"/>
                            <mxPoint x="514" y="-232"/>
                        </Array>
                    </mxGeometry>
                </mxCell>
                <mxCell id="58" value="" style="endArrow=classic;html=1;strokeWidth=1;fillColor=#F2CC8F;fontColor=#000000;exitX=0.469;exitY=1.02;exitDx=0;exitDy=0;exitPerimeter=0;entryX=0.467;entryY=-0.012;entryDx=0;entryDy=0;entryPerimeter=0;strokeColor=#000000;" parent="1" source="29" target="7" edge="1">
                    <mxGeometry width="50" height="50" relative="1" as="geometry">
                        <mxPoint x="290" y="-10" as="sourcePoint"/>
                        <mxPoint x="340" y="-60" as="targetPoint"/>
                    </mxGeometry>
                </mxCell>
            </root>
        </mxGraphModel>
    </diagram>
</mxfile>